<?xml version="1.0" encoding="UTF-8" standalone="no"?>
<svg
   clip-rule="evenodd"
   fill-rule="evenodd"
   stroke-linejoin="round"
   stroke-miterlimit="2"
   viewBox="0 0 64 64"
   version="1.1"
   id="svg10"
   sodipodi:docname="circle-dark.svg"
   inkscape:version="1.1.2 (0a00cf5339, 2022-02-04)"
   xmlns:inkscape="http://www.inkscape.org/namespaces/inkscape"
   xmlns:sodipodi="http://sodipodi.sourceforge.net/DTD/sodipodi-0.dtd"
   xmlns="http://www.w3.org/2000/svg"
   xmlns:svg="http://www.w3.org/2000/svg"
   xmlns:rdf="http://www.w3.org/1999/02/22-rdf-syntax-ns#"
   xmlns:cc="http://creativecommons.org/ns#"
   xmlns:dc="http://purl.org/dc/elements/1.1/">
  <metadata
     id="metadata16">
    <rdf:RDF>
      <cc:Work
         rdf:about="">
        <dc:format>image/svg+xml</dc:format>
        <dc:type
           rdf:resource="http://purl.org/dc/dcmitype/StillImage" />
      </cc:Work>
    </rdf:RDF>
  </metadata>
  <defs
     id="defs14">
    <filter
       style="color-interpolation-filters:sRGB;"
       inkscape:label="Invert"
       id="filter867"
       x="0"
       y="0"
       width="1"
       height="1">
      <feColorMatrix
         type="hueRotate"
         values="180"
         result="color1"
         id="feColorMatrix863" />
      <feColorMatrix
         values="-1 0 0 0 1 0 -1 0 0 1 0 0 -1 0 1 -0.21 -0.72 -0.07 2 0 "
         result="color2"
         id="feColorMatrix865" />
    </filter>
  </defs>
  <sodipodi:namedview
     pagecolor="#ffffff"
     bordercolor="#666666"
     borderopacity="1"
     objecttolerance="10"
     gridtolerance="10"
     guidetolerance="10"
     inkscape:pageopacity="0"
     inkscape:pageshadow="2"
     inkscape:window-width="1440"
     inkscape:window-height="742"
     id="namedview12"
     showgrid="false"
     inkscape:zoom="1.7401456"
     inkscape:cx="-99.129636"
     inkscape:cy="19.538595"
     inkscape:window-x="1920"
     inkscape:window-y="0"
     inkscape:window-maximized="1"
     inkscape:current-layer="svg10"
     inkscape:pagecheckerboard="0" />
  <g
     id="SVGRepo_iconCarrier-8"
     transform="matrix(1.8709838,0,0,1.8709838,2.8005141,2.1985263)"
     style="filter:url(#filter867)">
    <title
       id="title4">circle</title>
    <path
       d="M 28.857,18 C 28.057,23.65 23.63,28.125 18,28.997 V 30 H 14 V 28.997 C 8.37,28.126 3.943,23.65 3.142,18 H 2 V 14 H 3.188 C 4.112,8.507 8.481,4.19 14,3.336 V 2 h 4 V 3.336 C 23.52,4.19 27.887,8.507 28.812,14 H 30 v 4 z M 15,29 h 2 V 27 H 15 Z M 3,15 v 2 H 5 V 15 Z M 17,3 h -2 v 2 h 2 z m 1,1.852 V 6 H 14 V 4.852 C 9.31,5.676 5.599,9.335 4.708,14 H 6 v 4 H 4.654 C 5.429,22.822 9.199,26.638 14,27.481 V 26 h 4 v 1.481 C 22.801,26.637 26.571,22.822 27.346,18 H 26 v -4 h 1.292 C 26.4,9.335 22.69,5.676 18,4.852 Z M 29,15 h -2 v 2 h 2 z"
       id="path6" />
  </g>
  <path
     d="m0 0h64v64h-64z"
     fill="none"
     id="path2" />
  <text
     xml:space="preserve"
     style="font-style:normal;font-weight:normal;font-size:40px;line-height:1.25;font-family:sans-serif;letter-spacing:0px;word-spacing:0px;fill:#000000;fill-opacity:1;stroke:none"
     x="17.627119"
     y="10.847458"
     id="text827"><tspan
       sodipodi:role="line"
       id="tspan825"
       x="17.627119"
       y="46.238083" /></text>
</svg>
