<?xml version="1.0" encoding="UTF-8" standalone="no"?>
<!-- Uploaded to: SVG Repo, www.svgrepo.com, Generator: SVG Repo Mixer Tools -->

<svg
   fill="#000000"
   width="800px"
   height="800px"
   viewBox="0 0 32 32"
   version="1.1"
   id="svg6"
   sodipodi:docname="circle-bw.svg"
   inkscape:version="1.1.2 (0a00cf5339, 2022-02-04)"
   xmlns:inkscape="http://www.inkscape.org/namespaces/inkscape"
   xmlns:sodipodi="http://sodipodi.sourceforge.net/DTD/sodipodi-0.dtd"
   xmlns="http://www.w3.org/2000/svg"
   xmlns:svg="http://www.w3.org/2000/svg"
   xmlns:rdf="http://www.w3.org/1999/02/22-rdf-syntax-ns#"
   xmlns:cc="http://creativecommons.org/ns#"
   xmlns:dc="http://purl.org/dc/elements/1.1/">
  <defs
     id="defs10">
    <filter
       style="color-interpolation-filters:sRGB;"
       inkscape:label="Greyscale"
       id="filter1093"
       x="0"
       y="0"
       width="1"
       height="1">
      <feColorMatrix
         values="0.21 0.72 0.072 0.66 0 0.21 0.72 0.072 0.66 0 0.21 0.72 0.072 0.66 0 0 0 0 1 0 "
         id="feColorMatrix1091" />
    </filter>
  </defs>
  <sodipodi:namedview
     id="namedview8"
     pagecolor="#ffffff"
     bordercolor="#666666"
     borderopacity="1.0"
     inkscape:pageshadow="2"
     inkscape:pageopacity="0.0"
     inkscape:pagecheckerboard="0"
     showgrid="false"
     inkscape:zoom="0.7"
     inkscape:cx="401.42857"
     inkscape:cy="400"
     inkscape:window-width="1920"
     inkscape:window-height="1012"
     inkscape:window-x="0"
     inkscape:window-y="0"
     inkscape:window-maximized="1"
     inkscape:current-layer="svg6" />
  <title
     id="title2">circle</title>
  <path
     d="M28.857 18c-0.8 5.65-5.227 10.125-10.857 10.997v1.003h-4v-1.003c-5.63-0.871-10.057-5.347-10.858-10.997h-1.142v-4h1.188c0.924-5.493 5.293-9.81 10.812-10.664v-1.336h4v1.336c5.52 0.854 9.887 5.171 10.812 10.664h1.188v4h-1.143zM15 29h2v-2h-2v2zM3 15v2h2v-2h-2zM17 3h-2v2h2v-2zM18 4.852v1.148h-4v-1.148c-4.69 0.824-8.401 4.483-9.292 9.148h1.292v4h-1.346c0.775 4.822 4.545 8.638 9.346 9.481v-1.481h4v1.481c4.801-0.844 8.571-4.659 9.346-9.481h-1.346v-4h1.292c-0.892-4.665-4.602-8.324-9.292-9.148zM29 15h-2v2h2v-2z"
     id="path4"
     style="filter:url(#filter1093)" />
  <metadata
     id="metadata1129">
    <rdf:RDF>
      <cc:Work
         rdf:about="">
        <dc:title>circle</dc:title>
      </cc:Work>
    </rdf:RDF>
  </metadata>
</svg>
