<?xml version="1.0" encoding="UTF-8" standalone="no"?>
<!-- Uploaded to: SVG Repo, www.svgrepo.com, Generator: SVG Repo Mixer Tools -->

<svg
   fill="#000000"
   height="800px"
   width="800px"
   version="1.1"
   id="XMLID_172_"
   viewBox="0 0 24 24"
   xml:space="preserve"
   sodipodi:docname="directions-bw.svg"
   inkscape:version="1.1.2 (0a00cf5339, 2022-02-04)"
   xmlns:inkscape="http://www.inkscape.org/namespaces/inkscape"
   xmlns:sodipodi="http://sodipodi.sourceforge.net/DTD/sodipodi-0.dtd"
   xmlns="http://www.w3.org/2000/svg"
   xmlns:svg="http://www.w3.org/2000/svg"><defs
   id="defs10"><filter
     style="color-interpolation-filters:sRGB;"
     inkscape:label="Greyscale"
     id="filter939"
     x="0"
     y="0"
     width="1"
     height="1"><feColorMatrix
       values="0.21 0.72 0.072 0.62 0 0.21 0.72 0.072 0.62 0 0.21 0.72 0.072 0.62 0 0 0 0 1 0 "
       id="feColorMatrix937" /></filter></defs><sodipodi:namedview
   id="namedview8"
   pagecolor="#ffffff"
   bordercolor="#666666"
   borderopacity="1.0"
   inkscape:pageshadow="2"
   inkscape:pageopacity="0.0"
   inkscape:pagecheckerboard="0"
   showgrid="false"
   inkscape:zoom="0.7"
   inkscape:cx="401.42857"
   inkscape:cy="400"
   inkscape:window-width="1920"
   inkscape:window-height="1012"
   inkscape:window-x="0"
   inkscape:window-y="0"
   inkscape:window-maximized="1"
   inkscape:current-layer="XMLID_172_" />
<g
   id="directions"
   style="filter:url(#filter939)">
	<g
   id="g4">
		<path
   d="M13,24h-2v-7c0-2.8-2.1-5-4.8-5H3.7l3.2,3.3l-1.4,1.4L0,11l5.5-5.7l1.4,1.4L3.7,10h2.5c1.9,0,3.6,0.8,4.8,2.1V12    c0-3.9,3-7,6.8-7h2.5l-3.2-3.3l1.4-1.4L24,6l-5.5,5.7l-1.4-1.4L20.3,7h-2.5C15.1,7,13,9.2,13,12V24z"
   id="path2" />
	</g>
</g>
</svg>
