<?xml version="1.0" encoding="UTF-8" standalone="no"?>
<svg
   clip-rule="evenodd"
   fill-rule="evenodd"
   stroke-linejoin="round"
   stroke-miterlimit="2"
   viewBox="0 0 64 64"
   version="1.1"
   id="svg10"
   sodipodi:docname="feed-dark.svg"
   inkscape:version="1.1.2 (0a00cf5339, 2022-02-04)"
   xmlns:inkscape="http://www.inkscape.org/namespaces/inkscape"
   xmlns:sodipodi="http://sodipodi.sourceforge.net/DTD/sodipodi-0.dtd"
   xmlns="http://www.w3.org/2000/svg"
   xmlns:svg="http://www.w3.org/2000/svg"
   xmlns:rdf="http://www.w3.org/1999/02/22-rdf-syntax-ns#"
   xmlns:cc="http://creativecommons.org/ns#"
   xmlns:dc="http://purl.org/dc/elements/1.1/">
  <metadata
     id="metadata16">
    <rdf:RDF>
      <cc:Work
         rdf:about="">
        <dc:format>image/svg+xml</dc:format>
        <dc:type
           rdf:resource="http://purl.org/dc/dcmitype/StillImage" />
      </cc:Work>
    </rdf:RDF>
  </metadata>
  <defs
     id="defs14">
    <filter
       style="color-interpolation-filters:sRGB"
       inkscape:label="Greyscale"
       id="filter959"
       x="-0.041664941"
       y="-0.0625"
       width="1.0833316"
       height="1.125">
      <feColorMatrix
         values="0.21 0.72 0.072 0.62 0 0.21 0.72 0.072 0.62 0 0.21 0.72 0.072 0.62 0 0 0 0 1 0 "
         id="feColorMatrix957" />
    </filter>
    <filter
       style="color-interpolation-filters:sRGB"
       inkscape:label="Greyscale"
       id="filter939"
       x="0"
       y="0"
       width="1"
       height="1">
      <feColorMatrix
         values="0.21 0.72 0.072 0.62 0 0.21 0.72 0.072 0.62 0 0.21 0.72 0.072 0.62 0 0 0 0 1 0 "
         id="feColorMatrix937" />
    </filter>
    <filter
       style="color-interpolation-filters:sRGB;"
       inkscape:label="Invert"
       id="filter836"
       x="0"
       y="0"
       width="1"
       height="1">
      <feColorMatrix
         type="hueRotate"
         values="180"
         result="color1"
         id="feColorMatrix832" />
      <feColorMatrix
         values="-1 0 0 0 1 0 -1 0 0 1 0 0 -1 0 1 -0.21 -0.72 -0.07 2 0 "
         result="color2"
         id="feColorMatrix834" />
    </filter>
    <filter
       style="color-interpolation-filters:sRGB;"
       inkscape:label="Invert"
       id="filter842"
       x="0"
       y="0"
       width="1"
       height="1">
      <feColorMatrix
         type="hueRotate"
         values="180"
         result="color1"
         id="feColorMatrix838" />
      <feColorMatrix
         values="-1 0 0 0 1 0 -1 0 0 1 0 0 -1 0 1 -0.21 -0.72 -0.07 2 0 "
         result="color2"
         id="feColorMatrix840" />
    </filter>
  </defs>
  <sodipodi:namedview
     pagecolor="#ffffff"
     bordercolor="#666666"
     borderopacity="1"
     objecttolerance="10"
     gridtolerance="10"
     guidetolerance="10"
     inkscape:pageopacity="0"
     inkscape:pageshadow="2"
     inkscape:window-width="1440"
     inkscape:window-height="742"
     id="namedview12"
     showgrid="false"
     inkscape:zoom="1.7401456"
     inkscape:cx="98.554971"
     inkscape:cy="-17.239937"
     inkscape:window-x="1920"
     inkscape:window-y="0"
     inkscape:window-maximized="1"
     inkscape:current-layer="svg10"
     inkscape:pagecheckerboard="0" />
  <path
     d="m0 0h64v64h-64z"
     fill="none"
     id="path2"
     style="filter:url(#filter836)" />
  <text
     xml:space="preserve"
     style="font-style:normal;font-weight:normal;font-size:40px;line-height:1.25;font-family:sans-serif;letter-spacing:0px;word-spacing:0px;fill:#000000;fill-opacity:1;stroke:none"
     x="17.627119"
     y="10.847458"
     id="text827"><tspan
       sodipodi:role="line"
       id="tspan825"
       x="17.627119"
       y="46.238083" /></text>
  <g
     id="g845"
     transform="matrix(0.13681362,0,0,0.13681362,17.740254,-21.582296)"
     style="filter:url(#filter842)">
    <path
       d="m 101.15706,585.52141 v 0 l 70.9132,0.14427 c 0,-67.22985 -27.44095,-127.96755 -71.63533,-172.25845 C 56.384988,369.26059 -4.562806,341.99354 -71.865346,341.84927 v 70.54806 c 46.07191,0 89.688578,18.17803 122.328866,50.78307 32.640287,32.60503 50.69354,76.17459 50.69354,122.34101 z"
       id="path4"
       style="stroke-width:1.44348" />
    <path
       d="m 227.09658,585.66568 h 70.76877 c 0,-101.85466 -41.45028,-194.04323 -108.46397,-260.98454 C 122.53212,257.73983 30.243872,216.33432 -71.72092,216.33432 v 70.54806 c 164.790125,0.14427 298.67307,134.17116 298.8175,298.7833 z"
       id="path6"
       style="stroke-width:1.44348" />
    <path
       d="m -22.760488,585.23287 c 13.5760484,0 25.7078367,-5.33799 34.662252,-14.28274 8.954415,-8.94474 14.442605,-21.06342 14.442605,-34.48054 0,-13.56139 -5.48819,-25.68007 -14.442605,-34.62482 -8.9544153,-8.94474 -21.0862036,-14.427 -34.662252,-14.427 -13.576049,0 -25.707838,5.48226 -34.662253,14.427 -8.954415,8.94475 -14.442605,21.06343 -14.442605,34.62482 0,13.41712 5.48819,25.5358 14.442605,34.48054 8.954415,8.80048 21.086204,14.28274 34.662253,14.28274 z"
       id="path8"
       style="stroke-width:1.44348" />
  </g>
</svg>
