<?xml version="1.0" encoding="UTF-8" standalone="no"?>
<!-- Uploaded to: SVG Repo, www.svgrepo.com, Generator: SVG Repo Mixer Tools -->

<svg
   fill="#000000"
   height="800px"
   width="800px"
   version="1.1"
   id="Layer_1"
   viewBox="-143 145 512 512"
   xml:space="preserve"
   sodipodi:docname="feed.svg"
   inkscape:version="1.1.2 (0a00cf5339, 2022-02-04)"
   xmlns:inkscape="http://www.inkscape.org/namespaces/inkscape"
   xmlns:sodipodi="http://sodipodi.sourceforge.net/DTD/sodipodi-0.dtd"
   xmlns="http://www.w3.org/2000/svg"
   xmlns:svg="http://www.w3.org/2000/svg"><defs
   id="defs15">
	
	
	
	
</defs><sodipodi:namedview
   id="namedview13"
   pagecolor="#ffffff"
   bordercolor="#666666"
   borderopacity="1.0"
   inkscape:pageshadow="2"
   inkscape:pageopacity="0.0"
   inkscape:pagecheckerboard="0"
   showgrid="false"
   inkscape:zoom="0.7"
   inkscape:cx="402.85714"
   inkscape:cy="400"
   inkscape:window-width="1920"
   inkscape:window-height="1012"
   inkscape:window-x="0"
   inkscape:window-y="0"
   inkscape:window-maximized="1"
   inkscape:current-layer="Layer_1" />
<path
   d="m 101.15706,585.52141 v 0 l 70.9132,0.14427 c 0,-67.22985 -27.44095,-127.96755 -71.63533,-172.25845 C 56.384988,369.26059 -4.562806,341.99354 -71.865346,341.84927 v 70.54806 c 46.07191,0 89.688578,18.17803 122.328866,50.78307 32.640287,32.60503 50.69354,76.17459 50.69354,122.34101 z"
   id="path4"
   style="stroke-width:1.44348" /><path
   d="m 227.09658,585.66568 h 70.76877 c 0,-101.85466 -41.45028,-194.04323 -108.46397,-260.98454 C 122.53212,257.73983 30.243872,216.33432 -71.72092,216.33432 v 70.54806 c 164.790125,0.14427 298.67307,134.17116 298.8175,298.7833 z"
   id="path6"
   style="stroke-width:1.44348" /><path
   d="m -22.760488,585.23287 c 13.5760484,0 25.7078367,-5.33799 34.662252,-14.28274 8.954415,-8.94474 14.442605,-21.06342 14.442605,-34.48054 0,-13.56139 -5.48819,-25.68007 -14.442605,-34.62482 -8.9544153,-8.94474 -21.0862036,-14.427 -34.662252,-14.427 -13.576049,0 -25.707838,5.48226 -34.662253,14.427 -8.954415,8.94475 -14.442605,21.06343 -14.442605,34.62482 0,13.41712 5.48819,25.5358 14.442605,34.48054 8.954415,8.80048 21.086204,14.28274 34.662253,14.28274 z"
   id="path8"
   style="stroke-width:1.44348" />
</svg>
