<?xml version="1.0" encoding="UTF-8" standalone="no"?>
<!-- Uploaded to: SVG Repo, www.svgrepo.com, Generator: SVG Repo Mixer Tools -->

<svg
   fill="#000000"
   height="800px"
   width="800px"
   version="1.1"
   id="Layer_1"
   viewBox="-143 145 512 512"
   xml:space="preserve"
   sodipodi:docname="feed-bw.svg"
   inkscape:version="1.1.2 (0a00cf5339, 2022-02-04)"
   xmlns:inkscape="http://www.inkscape.org/namespaces/inkscape"
   xmlns:sodipodi="http://sodipodi.sourceforge.net/DTD/sodipodi-0.dtd"
   xmlns="http://www.w3.org/2000/svg"
   xmlns:svg="http://www.w3.org/2000/svg"><defs
   id="defs15"><filter
   style="color-interpolation-filters:sRGB;"
   inkscape:label="Greyscale"
   id="filter966"
   x="0"
   y="0"
   width="1"
   height="1"><feColorMatrix
     values="0.21 0.72 0.072 0.66 0 0.21 0.72 0.072 0.66 0 0.21 0.72 0.072 0.66 0 0 0 0 1 0 "
     id="feColorMatrix964" /></filter>
	
	
	
	
</defs><sodipodi:namedview
   id="namedview13"
   pagecolor="#ffffff"
   bordercolor="#666666"
   borderopacity="1.0"
   inkscape:pageshadow="2"
   inkscape:pageopacity="0.0"
   inkscape:pagecheckerboard="0"
   showgrid="false"
   inkscape:zoom="0.7"
   inkscape:cx="401.42857"
   inkscape:cy="400"
   inkscape:window-width="1920"
   inkscape:window-height="1012"
   inkscape:window-x="0"
   inkscape:window-y="0"
   inkscape:window-maximized="1"
   inkscape:current-layer="Layer_1" />
<path
   d="m 104.8,528.9 v 0 l 49.1,0.1 c 0,-46.6 -19,-88.7 -49.6,-119.4 C 73.8,379 31.6,360.1 -15,360 v 48.9 c 31.9,0 62.1,12.6 84.7,35.2 22.6,22.6 35.1,52.8 35.1,84.8 z"
   id="path4"
   style="filter:url(#filter966)" /><path
   d="m 192,529 h 49 C 241,458.4 212.3,394.5 165.9,348.1 119.6,301.7 55.7,273 -14.9,273 v 48.9 C 99.2,322 191.9,414.9 192,529 Z"
   id="path6"
   style="filter:url(#filter966)" /><path
   d="m 19,528.7 c 9.4,0 17.8,-3.7 24,-9.9 6.2,-6.2 10,-14.6 10,-23.9 0,-9.4 -3.8,-17.8 -10,-24 -6.2,-6.2 -14.6,-10 -24,-10 -9.4,0 -17.8,3.8 -24,10 -6.2,6.2 -10,14.6 -10,24 0,9.3 3.8,17.7 10,23.9 6.2,6.1 14.6,9.9 24,9.9 z"
   id="path8"
   style="filter:url(#filter966)" />
</svg>
