<?xml version="1.0" encoding="UTF-8" standalone="no"?>
<!-- Uploaded to: SVG Repo, www.svgrepo.com, Generator: SVG Repo Mixer Tools -->

<svg
   width="800px"
   height="800px"
   viewBox="0 0 100 100"
   aria-hidden="true"
   role="img"
   class="iconify iconify--gis"
   preserveAspectRatio="xMidYMid meet"
   version="1.1"
   id="svg8"
   sodipodi:docname="kml-bw.svg"
   inkscape:version="1.1.2 (0a00cf5339, 2022-02-04)"
   xmlns:inkscape="http://www.inkscape.org/namespaces/inkscape"
   xmlns:sodipodi="http://sodipodi.sourceforge.net/DTD/sodipodi-0.dtd"
   xmlns="http://www.w3.org/2000/svg"
   xmlns:svg="http://www.w3.org/2000/svg">
  <defs
     id="defs12" />
  <sodipodi:namedview
     id="namedview10"
     pagecolor="#ffffff"
     bordercolor="#666666"
     borderopacity="1.0"
     inkscape:pageshadow="2"
     inkscape:pageopacity="0.0"
     inkscape:pagecheckerboard="0"
     showgrid="false"
     inkscape:zoom="0.7"
     inkscape:cx="402.85714"
     inkscape:cy="400"
     inkscape:window-width="1920"
     inkscape:window-height="1012"
     inkscape:window-x="0"
     inkscape:window-y="0"
     inkscape:window-maximized="1"
     inkscape:current-layer="svg8" />
  <path
     fill="#000000"
     d="M 48.986588,5.3909379 A 45.200348,42.055413 0 0 0 3.78624,47.446352 45.200348,42.055413 0 0 0 48.986588,89.501765 45.200348,42.055413 0 0 0 94.186936,47.446352 45.200348,42.055413 0 0 0 48.986588,5.3909379 m -0.91606,2.9756547 c 19.815832,0 36.521881,12.3362544 41.74905,29.2126254 -0.966283,1.728945 -2.197741,2.859767 -3.762678,2.985 -5.379845,0 -12.615919,-12.936246 -16.786404,-17.280103 C 63.022803,16.781413 54.432728,10.6488 39.273536,10.6488 c -2.655772,0 -4.869585,0.140185 -6.717776,0.377565 A 43.38028,40.361983 0 0 1 48.070528,8.3665926 m -18.81339,9.6820914 c 11.290042,0 19.520524,8.011089 28.361713,15.986664 5.638993,5.102723 21.318492,18.640829 33.78977,21.184713 a 42.892116,39.907783 0 0 1 -1.589043,6.261585 C 62.359864,58.537767 36.539417,29.598034 21.860352,29.598034 c -5.464219,0 -10.645184,4.069095 -15.1692359,8.280244 A 43.456619,40.433008 0 0 1 18.814854,19.527165 c 3.063579,-0.852323 6.589206,-1.476612 10.442284,-1.476612 M 15.130523,59.619992 c 6.770007,0 25.804376,12.6484 51.020144,12.6484 7.278261,0 14.267239,-1.775673 19.070529,-3.368172 a 42.809752,39.831149 0 0 1 -7.031165,7.506424 c -5.022261,1.461659 -11.858563,2.897151 -19.275437,2.897151 -16.252037,0 -20.635467,-3.523309 -25.040994,-3.523309 -4.984091,0 -4.19861,4.127038 -2.892821,7.250353 A 43.573135,40.541419 0 0 1 9.8531315,63.532081 C 10.773209,61.419964 12.36627,59.619992 15.140568,59.619992"
     id="path6"
     style="stroke-width:1.93776;fill:#afadad;fill-opacity:1" />
</svg>
