<?xml version="1.0" encoding="UTF-8" standalone="no"?>
<svg
   clip-rule="evenodd"
   fill-rule="evenodd"
   stroke-linejoin="round"
   stroke-miterlimit="2"
   viewBox="0 0 64 64"
   version="1.1"
   id="svg10"
   sodipodi:docname="kml-bw.svg"
   inkscape:version="1.1.2 (0a00cf5339, 2022-02-04)"
   xmlns:inkscape="http://www.inkscape.org/namespaces/inkscape"
   xmlns:sodipodi="http://sodipodi.sourceforge.net/DTD/sodipodi-0.dtd"
   xmlns="http://www.w3.org/2000/svg"
   xmlns:svg="http://www.w3.org/2000/svg"
   xmlns:rdf="http://www.w3.org/1999/02/22-rdf-syntax-ns#"
   xmlns:cc="http://creativecommons.org/ns#"
   xmlns:dc="http://purl.org/dc/elements/1.1/">
  <metadata
     id="metadata16">
    <rdf:RDF>
      <cc:Work
         rdf:about="">
        <dc:format>image/svg+xml</dc:format>
        <dc:type
           rdf:resource="http://purl.org/dc/dcmitype/StillImage" />
      </cc:Work>
    </rdf:RDF>
  </metadata>
  <defs
     id="defs14">
    <filter
       style="color-interpolation-filters:sRGB"
       inkscape:label="Greyscale"
       id="filter959"
       x="-0.041664941"
       y="-0.0625"
       width="1.0833316"
       height="1.125">
      <feColorMatrix
         values="0.21 0.72 0.072 0.62 0 0.21 0.72 0.072 0.62 0 0.21 0.72 0.072 0.62 0 0 0 0 1 0 "
         id="feColorMatrix957" />
    </filter>
    <filter
       style="color-interpolation-filters:sRGB"
       inkscape:label="Greyscale"
       id="filter939"
       x="0"
       y="0"
       width="1"
       height="1">
      <feColorMatrix
         values="0.21 0.72 0.072 0.62 0 0.21 0.72 0.072 0.62 0 0.21 0.72 0.072 0.62 0 0 0 0 1 0 "
         id="feColorMatrix937" />
    </filter>
  </defs>
  <sodipodi:namedview
     pagecolor="#ffffff"
     bordercolor="#666666"
     borderopacity="1"
     objecttolerance="10"
     gridtolerance="10"
     guidetolerance="10"
     inkscape:pageopacity="0"
     inkscape:pageshadow="2"
     inkscape:window-width="1920"
     inkscape:window-height="1012"
     id="namedview12"
     showgrid="false"
     inkscape:zoom="1.7401456"
     inkscape:cx="-25.572573"
     inkscape:cy="-4.0226519"
     inkscape:window-x="0"
     inkscape:window-y="0"
     inkscape:window-maximized="1"
     inkscape:current-layer="svg10"
     inkscape:pagecheckerboard="0" />
  <path
     d="m0 0h64v64h-64z"
     fill="none"
     id="path2" />
  <text
     xml:space="preserve"
     style="font-style:normal;font-weight:normal;font-size:40px;line-height:1.25;font-family:sans-serif;letter-spacing:0px;word-spacing:0px;fill:#000000;fill-opacity:1;stroke:none"
     x="17.627119"
     y="10.847458"
     id="text827"><tspan
       sodipodi:role="line"
       id="tspan825"
       x="17.627119"
       y="46.238083" /></text>
  <path
     fill="#000000"
     d="M 32.508994,5.0896844 A 28.043435,27.222431 0 0 0 4.4655591,32.312117 28.043435,27.222431 0 0 0 32.508994,59.53455 28.043435,27.222431 0 0 0 60.552428,32.312117 28.043435,27.222431 0 0 0 32.508994,5.0896844 m -0.56835,1.926139 c 12.294244,0 22.659097,7.9852466 25.902165,18.9093056 -0.599506,1.119145 -1.363533,1.85113 -2.33446,1.932194 -3.337791,0 -7.827234,-8.373626 -10.414708,-11.185402 -3.876227,-4.209193 -9.205727,-8.1788266 -18.610867,-8.1788266 -1.64771,0 -3.02121,0.09074 -4.167885,0.244396 a 26.914219,26.126275 0 0 1 9.625755,-1.721667 M 20.268339,13.283032 c 7.004635,0 12.111035,5.18557 17.596325,10.348155 3.49858,3.302988 13.226532,12.066192 20.964026,13.712843 a 26.611351,25.832272 0 0 1 -0.985881,4.053126 C 40.806114,39.491577 24.786454,20.758917 15.679189,20.758917 c -3.39013,0 -6.6045499,2.633922 -9.4113799,5.359795 a 26.961582,26.172251 0 0 1 7.5218699,-11.87866 c 1.90073,-0.551708 4.08811,-0.95581 6.47866,-0.95581 m -8.76451,26.907862 c 4.20028,0 16.009695,8.187297 31.65419,8.187297 4.515618,0 8.851756,-1.149388 11.831839,-2.180216 a 26.56025,25.782667 0 0 1 -4.362313,4.858908 c -3.115938,0.946129 -7.357347,1.875319 -11.958971,1.875319 -10.08317,0 -12.80276,-2.280632 -15.536065,-2.280632 -3.09225,0 -2.60492,2.671426 -1.79478,4.693146 A 27.033871,26.242425 0 0 1 8.2296091,42.724392 c 0.57083,-1.367165 1.55922,-2.532288 3.2804599,-2.532288"
     id="path6-3"
     style="fill:#afadad;fill-opacity:1;stroke-width:1.22799" />
</svg>
