<?xml version="1.0" encoding="UTF-8" standalone="no"?>
<svg
   clip-rule="evenodd"
   fill-rule="evenodd"
   stroke-linejoin="round"
   stroke-miterlimit="2"
   viewBox="0 0 64 64"
   version="1.1"
   id="svg10"
   sodipodi:docname="marker-dark.svg"
   inkscape:version="1.1.2 (0a00cf5339, 2022-02-04)"
   xmlns:inkscape="http://www.inkscape.org/namespaces/inkscape"
   xmlns:sodipodi="http://sodipodi.sourceforge.net/DTD/sodipodi-0.dtd"
   xmlns="http://www.w3.org/2000/svg"
   xmlns:svg="http://www.w3.org/2000/svg"
   xmlns:rdf="http://www.w3.org/1999/02/22-rdf-syntax-ns#"
   xmlns:cc="http://creativecommons.org/ns#"
   xmlns:dc="http://purl.org/dc/elements/1.1/">
  <metadata
     id="metadata16">
    <rdf:RDF>
      <cc:Work
         rdf:about="">
        <dc:format>image/svg+xml</dc:format>
        <dc:type
           rdf:resource="http://purl.org/dc/dcmitype/StillImage" />
      </cc:Work>
    </rdf:RDF>
  </metadata>
  <defs
     id="defs14">
    <filter
       style="color-interpolation-filters:sRGB"
       inkscape:label="Greyscale"
       id="filter959"
       x="-0.041664941"
       y="-0.0625"
       width="1.0833316"
       height="1.125">
      <feColorMatrix
         values="0.21 0.72 0.072 0.62 0 0.21 0.72 0.072 0.62 0 0.21 0.72 0.072 0.62 0 0 0 0 1 0 "
         id="feColorMatrix957" />
    </filter>
    <filter
       style="color-interpolation-filters:sRGB"
       inkscape:label="Greyscale"
       id="filter939"
       x="0"
       y="0"
       width="1"
       height="1">
      <feColorMatrix
         values="0.21 0.72 0.072 0.62 0 0.21 0.72 0.072 0.62 0 0.21 0.72 0.072 0.62 0 0 0 0 1 0 "
         id="feColorMatrix937" />
    </filter>
  </defs>
  <sodipodi:namedview
     pagecolor="#ffffff"
     bordercolor="#666666"
     borderopacity="1"
     objecttolerance="10"
     gridtolerance="10"
     guidetolerance="10"
     inkscape:pageopacity="0"
     inkscape:pageshadow="2"
     inkscape:window-width="1440"
     inkscape:window-height="742"
     id="namedview12"
     showgrid="false"
     inkscape:zoom="1.7401456"
     inkscape:cx="-34.192541"
     inkscape:cy="27.009234"
     inkscape:window-x="1920"
     inkscape:window-y="0"
     inkscape:window-maximized="1"
     inkscape:current-layer="svg10"
     inkscape:pagecheckerboard="0" />
  <path
     d="m0 0h64v64h-64z"
     fill="none"
     id="path2" />
  <text
     xml:space="preserve"
     style="font-style:normal;font-weight:normal;font-size:40px;line-height:1.25;font-family:sans-serif;letter-spacing:0px;word-spacing:0px;fill:#000000;fill-opacity:1;stroke:none"
     x="17.627119"
     y="10.847458"
     id="text827"><tspan
       sodipodi:role="line"
       id="tspan825"
       x="17.627119"
       y="46.238083" /></text>
  <path
     d="m 32.793128,61.22485 c -2.32706,0 -4.336794,-1.031456 -5.394551,-2.784936 L 14.070866,35.232118 c -1.798189,-2.991227 -2.855944,-6.498182 -2.855944,-10.108282 0,-11.242887 9.731353,-20.4228602 21.578206,-20.4228602 11.952636,0 21.578208,9.1799732 21.578208,20.4228602 0,3.6101 -1.057755,7.117055 -2.961714,10.211428 L 38.293455,58.336767 c -1.163528,1.856627 -3.173264,2.888083 -5.500327,2.888083 z m 0,-52.1917536 c -9.414019,0 -17.135634,7.2202016 -17.135634,16.0907396 0,2.784936 0.740434,5.569872 2.327061,8.045371 l 13.327718,23.10465 c 0.21155,0.412582 0.846203,0.618874 1.586632,0.618874 0.74043,0 1.375081,-0.309438 1.586632,-0.72202 L 47.707478,33.169207 C 49.188335,30.693708 50.03454,27.908772 50.03454,25.123836 49.928754,16.253298 42.312926,9.0330964 32.793128,9.0330964 Z m 0,24.3424026 c -4.336794,0 -7.827386,-3.506956 -7.827386,-7.632789 0,-4.228975 3.490592,-7.632787 7.827386,-7.632787 4.336799,0 7.82739,3.403812 7.82739,7.632787 0,4.125833 -3.490591,7.632789 -7.82739,7.632789 z m 0,-10.933449 c -1.903959,0 -3.384815,1.444038 -3.384815,3.30066 0,1.856625 1.480856,3.300663 3.384815,3.300663 1.90396,0 3.384817,-1.444038 3.384817,-3.300663 0,-1.856622 -1.480857,-3.30066 -3.384817,-3.30066 z"
     id="path823"
     style="stroke-width:1;stroke:#ffffff;stroke-opacity:1;fill:#ffffff;fill-opacity:1;stroke-miterlimit:2;stroke-dasharray:none" />
</svg>
