<?xml version="1.0" encoding="UTF-8" standalone="no"?>
<!-- Uploaded to: SVG Repo, www.svgrepo.com, Generator: SVG Repo Mixer Tools -->

<svg
   fill="#000000"
   width="800px"
   height="800px"
   viewBox="-8 0 32 32"
   version="1.1"
   id="svg6"
   sodipodi:docname="marker-bw.svg"
   inkscape:version="1.1.2 (0a00cf5339, 2022-02-04)"
   xmlns:inkscape="http://www.inkscape.org/namespaces/inkscape"
   xmlns:sodipodi="http://sodipodi.sourceforge.net/DTD/sodipodi-0.dtd"
   xmlns="http://www.w3.org/2000/svg"
   xmlns:svg="http://www.w3.org/2000/svg"
   xmlns:rdf="http://www.w3.org/1999/02/22-rdf-syntax-ns#"
   xmlns:cc="http://creativecommons.org/ns#"
   xmlns:dc="http://purl.org/dc/elements/1.1/">
  <defs
     id="defs10">
    <filter
       style="color-interpolation-filters:sRGB;"
       inkscape:label="Greyscale"
       id="filter1005"
       x="0"
       y="0"
       width="1"
       height="1">
      <feColorMatrix
         values="0.21 0.72 0.072 0.62 0 0.21 0.72 0.072 0.62 0 0.21 0.72 0.072 0.62 0 0 0 0 1 0 "
         id="feColorMatrix1003" />
    </filter>
  </defs>
  <sodipodi:namedview
     id="namedview8"
     pagecolor="#ffffff"
     bordercolor="#666666"
     borderopacity="1.0"
     inkscape:pageshadow="2"
     inkscape:pageopacity="0.0"
     inkscape:pagecheckerboard="0"
     showgrid="false"
     inkscape:zoom="0.7"
     inkscape:cx="401.42857"
     inkscape:cy="400"
     inkscape:window-width="1920"
     inkscape:window-height="1012"
     inkscape:window-x="0"
     inkscape:window-y="0"
     inkscape:window-maximized="1"
     inkscape:current-layer="svg6" />
  <title
     id="title2">map-marker</title>
  <path
     d="M8.16 26.96c-0.88 0-1.64-0.4-2.040-1.080l-5.040-9c-0.68-1.16-1.080-2.52-1.080-3.92 0-4.36 3.68-7.92 8.16-7.92 4.52 0 8.16 3.56 8.16 7.92 0 1.4-0.4 2.76-1.12 3.96l-4.96 8.92c-0.44 0.72-1.2 1.12-2.080 1.12zM8.16 6.72c-3.56 0-6.48 2.8-6.48 6.24 0 1.080 0.28 2.16 0.88 3.12l5.040 8.96c0.080 0.16 0.32 0.24 0.6 0.24s0.52-0.12 0.6-0.28l5-8.92c0.56-0.96 0.88-2.040 0.88-3.12-0.040-3.44-2.92-6.24-6.52-6.24zM8.16 16.16c-1.64 0-2.96-1.36-2.96-2.96 0-1.64 1.32-2.96 2.96-2.96s2.96 1.32 2.96 2.96c0 1.6-1.32 2.96-2.96 2.96zM8.16 11.92c-0.72 0-1.28 0.56-1.28 1.28s0.56 1.28 1.28 1.28 1.28-0.56 1.28-1.28-0.56-1.28-1.28-1.28z"
     id="path4"
     style="filter:url(#filter1005)" />
  <metadata
     id="metadata1059">
    <rdf:RDF>
      <cc:Work
         rdf:about="">
        <dc:title>map-marker</dc:title>
      </cc:Work>
    </rdf:RDF>
  </metadata>
</svg>
