<?xml version="1.0" encoding="UTF-8" standalone="no"?>
<svg
   clip-rule="evenodd"
   fill-rule="evenodd"
   stroke-linejoin="round"
   stroke-miterlimit="2"
   viewBox="0 0 64 64"
   version="1.1"
   id="svg10"
   sodipodi:docname="marker-bw.svg"
   inkscape:version="1.1.2 (0a00cf5339, 2022-02-04)"
   xmlns:inkscape="http://www.inkscape.org/namespaces/inkscape"
   xmlns:sodipodi="http://sodipodi.sourceforge.net/DTD/sodipodi-0.dtd"
   xmlns="http://www.w3.org/2000/svg"
   xmlns:svg="http://www.w3.org/2000/svg"
   xmlns:rdf="http://www.w3.org/1999/02/22-rdf-syntax-ns#"
   xmlns:cc="http://creativecommons.org/ns#"
   xmlns:dc="http://purl.org/dc/elements/1.1/">
  <metadata
     id="metadata16">
    <rdf:RDF>
      <cc:Work
         rdf:about="">
        <dc:format>image/svg+xml</dc:format>
        <dc:type
           rdf:resource="http://purl.org/dc/dcmitype/StillImage" />
      </cc:Work>
    </rdf:RDF>
  </metadata>
  <defs
     id="defs14">
    <filter
       style="color-interpolation-filters:sRGB"
       inkscape:label="Greyscale"
       id="filter959"
       x="-0.041664941"
       y="-0.0625"
       width="1.0833316"
       height="1.125">
      <feColorMatrix
         values="0.21 0.72 0.072 0.62 0 0.21 0.72 0.072 0.62 0 0.21 0.72 0.072 0.62 0 0 0 0 1 0 "
         id="feColorMatrix957" />
    </filter>
    <filter
       style="color-interpolation-filters:sRGB"
       inkscape:label="Greyscale"
       id="filter939"
       x="0"
       y="0"
       width="1"
       height="1">
      <feColorMatrix
         values="0.21 0.72 0.072 0.62 0 0.21 0.72 0.072 0.62 0 0.21 0.72 0.072 0.62 0 0 0 0 1 0 "
         id="feColorMatrix937" />
    </filter>
    <filter
       style="color-interpolation-filters:sRGB"
       inkscape:label="Greyscale"
       id="filter1005"
       x="0"
       y="0"
       width="1"
       height="1">
      <feColorMatrix
         values="0.21 0.72 0.072 0.62 0 0.21 0.72 0.072 0.62 0 0.21 0.72 0.072 0.62 0 0 0 0 1 0 "
         id="feColorMatrix1003" />
    </filter>
  </defs>
  <sodipodi:namedview
     pagecolor="#ffffff"
     bordercolor="#666666"
     borderopacity="1"
     objecttolerance="10"
     gridtolerance="10"
     guidetolerance="10"
     inkscape:pageopacity="0"
     inkscape:pageshadow="2"
     inkscape:window-width="1920"
     inkscape:window-height="1012"
     id="namedview12"
     showgrid="false"
     inkscape:zoom="1.7401456"
     inkscape:cx="-215.21188"
     inkscape:cy="-156.88342"
     inkscape:window-x="0"
     inkscape:window-y="0"
     inkscape:window-maximized="1"
     inkscape:current-layer="svg10"
     inkscape:pagecheckerboard="0" />
  <path
     d="m0 0h64v64h-64z"
     fill="none"
     id="path2" />
  <text
     xml:space="preserve"
     style="font-style:normal;font-weight:normal;font-size:40px;line-height:1.25;font-family:sans-serif;letter-spacing:0px;word-spacing:0px;fill:#000000;fill-opacity:1;stroke:none"
     x="17.627119"
     y="10.847458"
     id="text827"><tspan
       sodipodi:role="line"
       id="tspan825"
       x="17.627119"
       y="46.238083" /></text>
  <path
     d="m 8.16,26.96 c -0.88,0 -1.64,-0.4 -2.04,-1.08 l -5.04,-9 C 0.4,15.72 0,14.36 0,12.96 0,8.6 3.68,5.04 8.16,5.04 c 4.52,0 8.16,3.56 8.16,7.92 0,1.4 -0.4,2.76 -1.12,3.96 l -4.96,8.92 c -0.44,0.72 -1.2,1.12 -2.08,1.12 z m 0,-20.24 c -3.56,0 -6.48,2.8 -6.48,6.24 0,1.08 0.28,2.16 0.88,3.12 l 5.04,8.96 c 0.08,0.16 0.32,0.24 0.6,0.24 0.28,0 0.52,-0.12 0.6,-0.28 l 5,-8.92 c 0.56,-0.96 0.88,-2.04 0.88,-3.12 C 14.64,9.52 11.76,6.72 8.16,6.72 Z m 0,9.44 C 6.52,16.16 5.2,14.8 5.2,13.2 c 0,-1.64 1.32,-2.96 2.96,-2.96 1.64,0 2.96,1.32 2.96,2.96 0,1.6 -1.32,2.96 -2.96,2.96 z m 0,-4.24 c -0.72,0 -1.28,0.56 -1.28,1.28 0,0.72 0.56,1.28 1.28,1.28 0.72,0 1.28,-0.56 1.28,-1.28 0,-0.72 -0.56,-1.28 -1.28,-1.28 z"
     id="path4"
     style="filter:url(#filter1005)"
     transform="matrix(2.6291789,0,0,2.6291789,11.313512,-9.0538788)" />
</svg>
