<?xml version="1.0" encoding="UTF-8" standalone="no"?>
<!-- Uploaded to: SVG Repo, www.svgrepo.com, Generator: SVG Repo Mixer Tools -->

<svg
   fill="#000000"
   width="800px"
   height="800px"
   viewBox="-8 0 32 32"
   version="1.1"
   id="svg825"
   sodipodi:docname="marker.svg"
   inkscape:version="1.1.2 (0a00cf5339, 2022-02-04)"
   xmlns:inkscape="http://www.inkscape.org/namespaces/inkscape"
   xmlns:sodipodi="http://sodipodi.sourceforge.net/DTD/sodipodi-0.dtd"
   xmlns="http://www.w3.org/2000/svg"
   xmlns:svg="http://www.w3.org/2000/svg">
  <defs
     id="defs829" />
  <sodipodi:namedview
     id="namedview827"
     pagecolor="#ffffff"
     bordercolor="#666666"
     borderopacity="1.0"
     inkscape:pageshadow="2"
     inkscape:pageopacity="0.0"
     inkscape:pagecheckerboard="0"
     showgrid="false"
     inkscape:zoom="0.645"
     inkscape:cx="401.55039"
     inkscape:cy="400"
     inkscape:window-width="1920"
     inkscape:window-height="1012"
     inkscape:window-x="0"
     inkscape:window-y="0"
     inkscape:window-maximized="1"
     inkscape:current-layer="svg825" />
  <title
     id="title821">map-marker</title>
  <path
     d="m 7.5077301,30.791967 c -1.1812848,0 -2.2014852,-0.523598 -2.7384329,-1.413715 L -1.9962429,17.597293 c -0.9128109,-1.518435 -1.4497585,-3.298669 -1.4497585,-5.131262 0,-5.7072204 4.9399181,-10.3672442 10.9537315,-10.3672442 6.0675089,0 10.9537319,4.6600238 10.9537319,10.3672442 0,1.832593 -0.536948,3.612827 -1.503453,5.183622 l -6.658152,11.676239 c -0.5906415,0.942477 -1.6108421,1.466075 -2.7921269,1.466075 z m 0,-26.4940679 c -4.7788339,0 -8.6985515,3.6651871 -8.6985515,8.1681319 0,1.413715 0.37586339,2.82743 1.18128479,4.084066 L 6.7560034,28.278696 c 0.1073896,0.209439 0.4295581,0.314159 0.8054214,0.314159 0.3758637,0 0.6980315,-0.15708 0.8054212,-0.366519 l 6.711846,-11.676239 c 0.751726,-1.256636 1.181285,-2.670351 1.181285,-4.084066 -0.0537,-4.5029448 -3.919718,-8.1681319 -8.7522469,-8.1681319 z m 0,12.3569179 c -2.2014852,0 -3.9734124,-1.780234 -3.9734124,-3.874627 0,-2.146753 1.7719272,-3.8746268 3.9734124,-3.8746268 2.2014854,0 3.9734129,1.7278738 3.9734129,3.8746268 0,2.094393 -1.7719275,3.874627 -3.9734129,3.874627 z m 0,-5.550141 c -0.9665058,0 -1.7182325,0.733037 -1.7182325,1.675514 0,0.942477 0.7517267,1.675514 1.7182325,1.675514 0.9665055,0 1.718232,-0.733037 1.718232,-1.675514 0,-0.942477 -0.7517265,-1.675514 -1.718232,-1.675514 z"
     id="path823"
     style="stroke-width:1.32558" />
</svg>
