<?xml version="1.0" encoding="UTF-8" standalone="no"?>
<svg
   clip-rule="evenodd"
   fill-rule="evenodd"
   stroke-linejoin="round"
   stroke-miterlimit="2"
   viewBox="0 0 64 64"
   version="1.1"
   id="svg10"
   sodipodi:docname="polyline.svg"
   inkscape:version="1.1.2 (0a00cf5339, 2022-02-04)"
   xmlns:inkscape="http://www.inkscape.org/namespaces/inkscape"
   xmlns:sodipodi="http://sodipodi.sourceforge.net/DTD/sodipodi-0.dtd"
   xmlns="http://www.w3.org/2000/svg"
   xmlns:svg="http://www.w3.org/2000/svg"
   xmlns:rdf="http://www.w3.org/1999/02/22-rdf-syntax-ns#"
   xmlns:cc="http://creativecommons.org/ns#"
   xmlns:dc="http://purl.org/dc/elements/1.1/">
  <metadata
     id="metadata16">
    <rdf:RDF>
      <cc:Work
         rdf:about="">
        <dc:format>image/svg+xml</dc:format>
        <dc:type
           rdf:resource="http://purl.org/dc/dcmitype/StillImage" />
      </cc:Work>
    </rdf:RDF>
  </metadata>
  <defs
     id="defs14">
    <filter
       style="color-interpolation-filters:sRGB"
       inkscape:label="Greyscale"
       id="filter959"
       x="-0.041664941"
       y="-0.0625"
       width="1.0833316"
       height="1.125">
      <feColorMatrix
         values="0.21 0.72 0.072 0.62 0 0.21 0.72 0.072 0.62 0 0.21 0.72 0.072 0.62 0 0 0 0 1 0 "
         id="feColorMatrix957" />
    </filter>
    <filter
       style="color-interpolation-filters:sRGB"
       inkscape:label="Greyscale"
       id="filter939"
       x="0"
       y="0"
       width="1"
       height="1">
      <feColorMatrix
         values="0.21 0.72 0.072 0.62 0 0.21 0.72 0.072 0.62 0 0.21 0.72 0.072 0.62 0 0 0 0 1 0 "
         id="feColorMatrix937" />
    </filter>
    <filter
       style="color-interpolation-filters:sRGB"
       inkscape:label="Greyscale"
       id="filter1005"
       x="0"
       y="0"
       width="1"
       height="1">
      <feColorMatrix
         values="0.21 0.72 0.072 0.62 0 0.21 0.72 0.072 0.62 0 0.21 0.72 0.072 0.62 0 0 0 0 1 0 "
         id="feColorMatrix1003" />
    </filter>
  </defs>
  <sodipodi:namedview
     pagecolor="#ffffff"
     bordercolor="#666666"
     borderopacity="1"
     objecttolerance="10"
     gridtolerance="10"
     guidetolerance="10"
     inkscape:pageopacity="0"
     inkscape:pageshadow="2"
     inkscape:window-width="1920"
     inkscape:window-height="1012"
     id="namedview12"
     showgrid="false"
     inkscape:zoom="1.7401456"
     inkscape:cx="-215.21188"
     inkscape:cy="-64.937095"
     inkscape:window-x="0"
     inkscape:window-y="0"
     inkscape:window-maximized="1"
     inkscape:current-layer="svg10"
     inkscape:pagecheckerboard="0" />
  <path
     d="m0 0h64v64h-64z"
     fill="none"
     id="path2" />
  <text
     xml:space="preserve"
     style="font-style:normal;font-weight:normal;font-size:40px;line-height:1.25;font-family:sans-serif;letter-spacing:0px;word-spacing:0px;fill:#000000;fill-opacity:1;stroke:none"
     x="17.627119"
     y="10.847458"
     id="text827"><tspan
       sodipodi:role="line"
       id="tspan825"
       x="17.627119"
       y="46.238083" /></text>
  <path
     d="m 56.245254,17.840719 c -2.98934,0 -5.34458,2.445825 -5.34458,5.344578 0,0.634102 0.0906,1.268205 0.27176,1.811722 L 40.302104,34.2368 c -0.72469,-0.452932 -1.63055,-0.634102 -2.627,-0.634102 -0.99645,0 -1.99289,0.271757 -2.80817,0.815272 l -6.15985,-4.982233 c 0.18118,-0.543516 0.27176,-0.996448 0.27176,-1.630549 0,-2.989342 -2.44583,-5.34458 -5.34458,-5.34458 -2.98934,0 -5.34458,2.445825 -5.34458,5.34458 0,0.815274 0.18117,1.539963 0.45294,2.174065 l -7.79041,7.790404 c -0.6341,-0.27176 -1.4493799,-0.45293 -2.1740699,-0.45293 -2.9893302,0 -5.3445802,2.445825 -5.3445802,5.344579 0,2.98934 2.44583,5.344578 5.3445802,5.344578 2.8987599,0 5.3445799,-2.445824 5.3445799,-5.344578 0,-0.815275 -0.18117,-1.539964 -0.45293,-2.174066 l 7.79041,-7.790403 c 0.6341,0.271757 1.44937,0.45293 2.17406,0.45293 0.99645,0 1.9929,-0.27176 2.80817,-0.815276 l 6.25043,4.801063 c -0.18116,0.543516 -0.18116,0.996448 -0.18116,1.63055 0,2.98934 2.44582,5.344579 5.34457,5.344579 2.89876,0 5.34458,-2.445825 5.34458,-5.344579 0,-0.634102 -0.0906,-1.268207 -0.27175,-1.811722 l 10.87033,-9.239781 c 0.72468,0.452932 1.63055,0.634103 2.627,0.634103 2.98933,0 5.34457,-2.445823 5.34457,-5.34458 -0.0906,-2.71758 -2.627,-5.163405 -5.52575,-5.163405 z M 8.6875639,44.291855 c -0.81528,0 -1.53997,-0.724688 -1.53997,-1.539963 0,-0.905861 0.72469,-1.539964 1.53997,-1.539964 0.8152702,0 1.5399601,0.724689 1.5399601,1.539964 0,0.815275 -0.6341099,1.539963 -1.5399601,1.539963 z M 22.003714,27.895774 c 0,-0.905861 0.72469,-1.539964 1.53996,-1.539964 0.81528,0 1.53997,0.724688 1.53997,1.539964 0,0.815275 -0.72469,1.539963 -1.53997,1.539963 -0.81527,0 -1.53996,-0.724688 -1.53996,-1.539963 z m 15.76198,12.500879 c -0.90586,0 -1.53996,-0.724688 -1.53996,-1.539963 0,-0.815275 0.72468,-1.539963 1.53996,-1.539963 0.81527,0 1.53996,0.724688 1.53996,1.539963 -0.0906,0.905862 -0.6341,1.539963 -1.53996,1.539963 z M 56.245254,24.72526 c -0.81527,0 -1.53997,-0.724688 -1.53997,-1.539963 0,-0.905862 0.7247,-1.539963 1.53997,-1.539963 0.90586,0 1.53996,0.724688 1.53996,1.539963 0,0.905861 -0.72468,1.539963 -1.53996,1.539963 z"
     id="path4-3"
     style="stroke-width:2.26465" />
</svg>
