<?xml version="1.0" encoding="UTF-8" standalone="no"?>
<!-- Uploaded to: SVG Repo, www.svgrepo.com, Generator: SVG Repo Mixer Tools -->

<svg
   width="800px"
   height="800px"
   viewBox="0 0 48 48"
   fill="none"
   version="1.1"
   id="svg14"
   sodipodi:docname="polygon-bw.svg"
   inkscape:version="1.1.2 (0a00cf5339, 2022-02-04)"
   xmlns:inkscape="http://www.inkscape.org/namespaces/inkscape"
   xmlns:sodipodi="http://sodipodi.sourceforge.net/DTD/sodipodi-0.dtd"
   xmlns="http://www.w3.org/2000/svg"
   xmlns:svg="http://www.w3.org/2000/svg">
  <defs
     id="defs18">
    <filter
       style="color-interpolation-filters:sRGB;"
       inkscape:label="Greyscale"
       id="filter845"
       x="0"
       y="0"
       width="1"
       height="1">
      <feColorMatrix
         values="0.21 0.72 0.072 -0.68 0 0.21 0.72 0.072 -0.68 0 0.21 0.72 0.072 -0.68 0 0 0 0 1 0 "
         id="feColorMatrix843"
         result="fbSourceGraphic" />
      <feColorMatrix
         result="fbSourceGraphicAlpha"
         in="fbSourceGraphic"
         values="0 0 0 -1 0 0 0 0 -1 0 0 0 0 -1 0 0 0 0 1 0"
         id="feColorMatrix871" />
      <feColorMatrix
         id="feColorMatrix873"
         values="0.21 0.72 0.072 -0.68 0 0.21 0.72 0.072 -0.68 0 0.21 0.72 0.072 -0.68 0 0 0 0 1 0 "
         in="fbSourceGraphic"
         result="fbSourceGraphic" />
      <feColorMatrix
         result="fbSourceGraphicAlpha"
         in="fbSourceGraphic"
         values="0 0 0 -1 0 0 0 0 -1 0 0 0 0 -1 0 0 0 0 1 0"
         id="feColorMatrix875" />
      <feColorMatrix
         id="feColorMatrix877"
         values="0.21 0.72 0.072 -0.68 0 0.21 0.72 0.072 -0.68 0 0.21 0.72 0.072 -0.68 0 0 0 0 1 0 "
         in="fbSourceGraphic"
         result="fbSourceGraphic" />
      <feColorMatrix
         result="fbSourceGraphicAlpha"
         in="fbSourceGraphic"
         values="0 0 0 -1 0 0 0 0 -1 0 0 0 0 -1 0 0 0 0 1 0"
         id="feColorMatrix879" />
      <feColorMatrix
         id="feColorMatrix881"
         values="0.21 0.72 0.072 -0.68 0 0.21 0.72 0.072 -0.68 0 0.21 0.72 0.072 -0.68 0 0 0 0 1 0 "
         in="fbSourceGraphic"
         result="fbSourceGraphic" />
      <feColorMatrix
         result="fbSourceGraphicAlpha"
         in="fbSourceGraphic"
         values="0 0 0 -1 0 0 0 0 -1 0 0 0 0 -1 0 0 0 0 1 0"
         id="feColorMatrix883" />
      <feColorMatrix
         id="feColorMatrix885"
         values="0.21 0.72 0.072 -0.68 0 0.21 0.72 0.072 -0.68 0 0.21 0.72 0.072 -0.68 0 0 0 0 1 0 "
         in="fbSourceGraphic"
         result="fbSourceGraphic" />
      <feColorMatrix
         result="fbSourceGraphicAlpha"
         in="fbSourceGraphic"
         values="0 0 0 -1 0 0 0 0 -1 0 0 0 0 -1 0 0 0 0 1 0"
         id="feColorMatrix887" />
      <feColorMatrix
         id="feColorMatrix889"
         values="0.21 0.72 0.072 -0.68 0 0.21 0.72 0.072 -0.68 0 0.21 0.72 0.072 -0.68 0 0 0 0 1 0 "
         in="fbSourceGraphic"
         result="fbSourceGraphic" />
      <feColorMatrix
         result="fbSourceGraphicAlpha"
         in="fbSourceGraphic"
         values="0 0 0 -1 0 0 0 0 -1 0 0 0 0 -1 0 0 0 0 1 0"
         id="feColorMatrix891" />
      <feColorMatrix
         id="feColorMatrix893"
         values="0.21 0.72 0.072 -0.68 0 0.21 0.72 0.072 -0.68 0 0.21 0.72 0.072 -0.68 0 0 0 0 1 0 "
         in="fbSourceGraphic"
         result="fbSourceGraphic" />
      <feColorMatrix
         result="fbSourceGraphicAlpha"
         in="fbSourceGraphic"
         values="0 0 0 -1 0 0 0 0 -1 0 0 0 0 -1 0 0 0 0 1 0"
         id="feColorMatrix913" />
      <feColorMatrix
         id="feColorMatrix915"
         values="0.21 0.72 0.072 -0.68 0 0.21 0.72 0.072 -0.68 0 0.21 0.72 0.072 -0.68 0 0 0 0 1 0 "
         in="fbSourceGraphic"
         result="fbSourceGraphic" />
      <feColorMatrix
         result="fbSourceGraphicAlpha"
         in="fbSourceGraphic"
         values="0 0 0 -1 0 0 0 0 -1 0 0 0 0 -1 0 0 0 0 1 0"
         id="feColorMatrix1755" />
      <feColorMatrix
         id="feColorMatrix1757"
         values="0.21 0.72 0.072 0.1 0 0.21 0.72 0.072 0.1 0 0.21 0.72 0.072 0.1 0 0 0 0 1 0 "
         in="fbSourceGraphic"
         result="fbSourceGraphic" />
      <feColorMatrix
         result="fbSourceGraphicAlpha"
         in="fbSourceGraphic"
         values="0 0 0 -1 0 0 0 0 -1 0 0 0 0 -1 0 0 0 0 1 0"
         id="feColorMatrix1759" />
      <feColorMatrix
         id="feColorMatrix1761"
         values="0.21 0.72 0.072 0.1 0 0.21 0.72 0.072 0.1 0 0.21 0.72 0.072 0.1 0 0 0 0 1 0 "
         in="fbSourceGraphic"
         result="fbSourceGraphic" />
      <feColorMatrix
         result="fbSourceGraphicAlpha"
         in="fbSourceGraphic"
         values="0 0 0 -1 0 0 0 0 -1 0 0 0 0 -1 0 0 0 0 1 0"
         id="feColorMatrix1763" />
      <feColorMatrix
         id="feColorMatrix1765"
         values="0.21 0.72 0.072 0.1 0 0.21 0.72 0.072 0.1 0 0.21 0.72 0.072 0.1 0 0 0 0 1 0 "
         in="fbSourceGraphic"
         result="fbSourceGraphic" />
      <feColorMatrix
         result="fbSourceGraphicAlpha"
         in="fbSourceGraphic"
         values="0 0 0 -1 0 0 0 0 -1 0 0 0 0 -1 0 0 0 0 1 0"
         id="feColorMatrix1767" />
      <feColorMatrix
         id="feColorMatrix1769"
         values="0.21 0.72 0.072 0.1 0 0.21 0.72 0.072 0.1 0 0.21 0.72 0.072 0.1 0 0 0 0 1 0 "
         in="fbSourceGraphic"
         result="fbSourceGraphic" />
      <feColorMatrix
         result="fbSourceGraphicAlpha"
         in="fbSourceGraphic"
         values="0 0 0 -1 0 0 0 0 -1 0 0 0 0 -1 0 0 0 0 1 0"
         id="feColorMatrix1771" />
      <feColorMatrix
         id="feColorMatrix1773"
         values="0.21 0.72 0.072 0.1 0 0.21 0.72 0.072 0.1 0 0.21 0.72 0.072 0.1 0 0 0 0 1 0 "
         in="fbSourceGraphic"
         result="fbSourceGraphic" />
      <feColorMatrix
         result="fbSourceGraphicAlpha"
         in="fbSourceGraphic"
         values="0 0 0 -1 0 0 0 0 -1 0 0 0 0 -1 0 0 0 0 1 0"
         id="feColorMatrix1775" />
      <feColorMatrix
         id="feColorMatrix1777"
         values="0.21 0.72 0.072 0.1 0 0.21 0.72 0.072 0.1 0 0.21 0.72 0.072 0.1 0 0 0 0 1 0 "
         in="fbSourceGraphic" />
    </filter>
  </defs>
  <sodipodi:namedview
     id="namedview16"
     pagecolor="#ffffff"
     bordercolor="#666666"
     borderopacity="1.0"
     inkscape:pageshadow="2"
     inkscape:pageopacity="0.0"
     inkscape:pagecheckerboard="0"
     showgrid="false"
     inkscape:zoom="0.7"
     inkscape:cx="401.42857"
     inkscape:cy="400"
     inkscape:window-width="1920"
     inkscape:window-height="1012"
     inkscape:window-x="0"
     inkscape:window-y="0"
     inkscape:window-maximized="1"
     inkscape:current-layer="svg14" />
  <path
     fill-rule="evenodd"
     clip-rule="evenodd"
     d="m 14,40 c 1.1046,0 2,-0.8954 2,-2 0,-1.1046 -0.8954,-2 -2,-2 -1.1046,0 -2,0.8954 -2,2 0,1.1046 0.8954,2 2,2 z m 0,2 c 2.2091,0 4,-1.7909 4,-4 0,-2.2091 -1.7909,-4 -4,-4 -2.2091,0 -4,1.7909 -4,4 0,2.2091 1.7909,4 4,4 z"
     fill="#333333"
     id="path2"
     style="filter:url(#filter845)" />
  <path
     fill-rule="evenodd"
     clip-rule="evenodd"
     d="m 10,22 c 1.1046,0 2,-0.8954 2,-2 0,-1.1046 -0.8954,-2 -2,-2 -1.10457,0 -2,0.8954 -2,2 0,1.1046 0.89543,2 2,2 z m 0,2 c 2.2091,0 4,-1.7909 4,-4 0,-2.2091 -1.7909,-4 -4,-4 -2.20914,0 -4,1.7909 -4,4 0,2.2091 1.79086,4 4,4 z"
     fill="#333333"
     id="path4"
     style="filter:url(#filter845)" />
  <path
     fill-rule="evenodd"
     clip-rule="evenodd"
     d="m 38,22 c 1.1046,0 2,-0.8954 2,-2 0,-1.1046 -0.8954,-2 -2,-2 -1.1046,0 -2,0.8954 -2,2 0,1.1046 0.8954,2 2,2 z m 0,2 c 2.2091,0 4,-1.7909 4,-4 0,-2.2091 -1.7909,-4 -4,-4 -2.2091,0 -4,1.7909 -4,4 0,2.2091 1.7909,4 4,4 z"
     fill="#333333"
     id="path6"
     style="filter:url(#filter845)" />
  <path
     fill-rule="evenodd"
     clip-rule="evenodd"
     d="m 34,40 c 1.1046,0 2,-0.8954 2,-2 0,-1.1046 -0.8954,-2 -2,-2 -1.1046,0 -2,0.8954 -2,2 0,1.1046 0.8954,2 2,2 z m 0,2 c 2.2091,0 4,-1.7909 4,-4 0,-2.2091 -1.7909,-4 -4,-4 -2.2091,0 -4,1.7909 -4,4 0,2.2091 1.7909,4 4,4 z"
     fill="#333333"
     id="path8"
     style="filter:url(#filter845)" />
  <path
     fill-rule="evenodd"
     clip-rule="evenodd"
     d="m 24,12 c 1.1046,0 2,-0.8954 2,-2 0,-1.10457 -0.8954,-2 -2,-2 -1.1046,0 -2,0.89543 -2,2 0,1.1046 0.8954,2 2,2 z m 0,2 c 2.2091,0 4,-1.7909 4,-4 0,-2.20914 -1.7909,-4 -4,-4 -2.2091,0 -4,1.79086 -4,4 0,2.2091 1.7909,4 4,4 z"
     fill="#333333"
     id="path10"
     style="filter:url(#filter845)" />
  <path
     fill-rule="evenodd"
     clip-rule="evenodd"
     d="m 34.9188,19.028 -9,-6.4285 1.1624,-1.6275 9,6.4286 z M 21.7844,12.8115 13.0812,19.028 11.9188,17.4006 20.622,11.184 Z m -10.1415,9.9716 2.6666,12 -1.9523,0.4338 -2.66671,-12 z m 22.0476,12 2.5555,-11.5 1.9524,0.4338 -2.5555,11.5 z M 17,37 h 14 v 2 H 17 Z"
     fill="#333333"
     id="path12"
     style="filter:url(#filter845)" />
</svg>
