<?xml version="1.0" encoding="UTF-8" standalone="no"?>
<!-- Uploaded to: SVG Repo, www.svgrepo.com, Generator: SVG Repo Mixer Tools -->

<svg
   fill="#000000"
   width="800px"
   height="800px"
   viewBox="-3 0 32 32"
   version="1.1"
   id="svg6"
   sodipodi:docname="polyline-bw.svg"
   inkscape:version="1.1.2 (0a00cf5339, 2022-02-04)"
   xmlns:inkscape="http://www.inkscape.org/namespaces/inkscape"
   xmlns:sodipodi="http://sodipodi.sourceforge.net/DTD/sodipodi-0.dtd"
   xmlns="http://www.w3.org/2000/svg"
   xmlns:svg="http://www.w3.org/2000/svg"
   xmlns:rdf="http://www.w3.org/1999/02/22-rdf-syntax-ns#"
   xmlns:cc="http://creativecommons.org/ns#"
   xmlns:dc="http://purl.org/dc/elements/1.1/">
  <defs
     id="defs10">
    <filter
       style="color-interpolation-filters:sRGB;"
       inkscape:label="Greyscale"
       id="filter851"
       x="0"
       y="0"
       width="1"
       height="1">
      <feColorMatrix
         values="0.21 0.72 0.072 0.532574 0 0.21 0.72 0.072 0.532574 0 0.21 0.72 0.072 0.532574 0 0 0 0 1 0 "
         id="feColorMatrix849" />
    </filter>
  </defs>
  <sodipodi:namedview
     id="namedview8"
     pagecolor="#ffffff"
     bordercolor="#666666"
     borderopacity="1.0"
     inkscape:pageshadow="2"
     inkscape:pageopacity="0.0"
     inkscape:pagecheckerboard="0"
     showgrid="false"
     inkscape:zoom="0.7"
     inkscape:cx="771.42857"
     inkscape:cy="400"
     inkscape:window-width="1920"
     inkscape:window-height="1012"
     inkscape:window-x="0"
     inkscape:window-y="0"
     inkscape:window-maximized="1"
     inkscape:current-layer="svg6" />
  <title
     id="title2">line-chart</title>
  <path
     d="m 23.36,9.32 c -1.32,0 -2.36,1.08 -2.36,2.36 0,0.28 0.04,0.56 0.12,0.8 l -4.8,4.08 C 16,16.36 15.6,16.28 15.16,16.28 c -0.44,0 -0.88,0.12 -1.24,0.36 l -2.72,-2.2 c 0.08,-0.24 0.12,-0.44 0.12,-0.72 0,-1.32 -1.08,-2.36 -2.36,-2.36 -1.32,0 -2.36,1.08 -2.36,2.36 0,0.36 0.08,0.68 0.2,0.96 L 3.36,18.12 C 3.08,18 2.72,17.92 2.4,17.92 c -1.32,0 -2.36,1.08 -2.36,2.36 0,1.32 1.08,2.36 2.36,2.36 1.28,0 2.36,-1.08 2.36,-2.36 0,-0.36 -0.08,-0.68 -0.2,-0.96 L 8,15.88 c 0.28,0.12 0.64,0.2 0.96,0.2 0.44,0 0.88,-0.12 1.24,-0.36 l 2.76,2.12 c -0.08,0.24 -0.08,0.44 -0.08,0.72 0,1.32 1.08,2.36 2.36,2.36 1.28,0 2.36,-1.08 2.36,-2.36 0,-0.28 -0.04,-0.56 -0.12,-0.8 l 4.8,-4.08 c 0.32,0.2 0.72,0.28 1.16,0.28 1.32,0 2.36,-1.08 2.36,-2.36 C 25.76,10.4 24.64,9.32 23.36,9.32 Z M 2.36,21 C 2,21 1.68,20.68 1.68,20.32 c 0,-0.4 0.32,-0.68 0.68,-0.68 0.36,0 0.68,0.32 0.68,0.68 0,0.36 -0.28,0.68 -0.68,0.68 z m 5.88,-7.24 c 0,-0.4 0.32,-0.68 0.68,-0.68 0.36,0 0.68,0.32 0.68,0.68 0,0.36 -0.32,0.68 -0.68,0.68 -0.36,0 -0.68,-0.32 -0.68,-0.68 z m 6.96,5.52 c -0.4,0 -0.68,-0.32 -0.68,-0.68 0,-0.36 0.32,-0.68 0.68,-0.68 0.36,0 0.68,0.32 0.68,0.68 -0.04,0.4 -0.28,0.68 -0.68,0.68 z m 8.16,-6.92 c -0.36,0 -0.68,-0.32 -0.68,-0.68 0,-0.4 0.32,-0.68 0.68,-0.68 0.4,0 0.68,0.32 0.68,0.68 0,0.4 -0.32,0.68 -0.68,0.68 z"
     id="path4"
     style="stroke-width:1;filter:url(#filter851)" />
  <metadata
     id="metadata887">
    <rdf:RDF>
      <cc:Work
         rdf:about="">
        <dc:title>line-chart</dc:title>
      </cc:Work>
    </rdf:RDF>
  </metadata>
</svg>
