<?xml version="1.0" encoding="UTF-8" standalone="no"?>
<!-- Uploaded to: SVG Repo, www.svgrepo.com, Generator: SVG Repo Mixer Tools -->

<svg
   fill="#000000"
   width="800px"
   height="800px"
   viewBox="0 0 32 32"
   version="1.1"
   id="svg6"
   sodipodi:docname="rectangle-bw.svg"
   inkscape:version="1.1.2 (0a00cf5339, 2022-02-04)"
   xmlns:inkscape="http://www.inkscape.org/namespaces/inkscape"
   xmlns:sodipodi="http://sodipodi.sourceforge.net/DTD/sodipodi-0.dtd"
   xmlns="http://www.w3.org/2000/svg"
   xmlns:svg="http://www.w3.org/2000/svg"
   xmlns:rdf="http://www.w3.org/1999/02/22-rdf-syntax-ns#"
   xmlns:cc="http://creativecommons.org/ns#"
   xmlns:dc="http://purl.org/dc/elements/1.1/">
  <defs
     id="defs10">
    <filter
       style="color-interpolation-filters:sRGB;"
       inkscape:label="Greyscale"
       id="filter903"
       x="0"
       y="0"
       width="1"
       height="1">
      <feColorMatrix
         values="0.21 0.72 0.072 0.68 0 0.21 0.72 0.072 0.68 0 0.21 0.72 0.072 0.68 0 0 0 0 1 0 "
         id="feColorMatrix901" />
    </filter>
  </defs>
  <sodipodi:namedview
     id="namedview8"
     pagecolor="#ffffff"
     bordercolor="#666666"
     borderopacity="1.0"
     inkscape:pageshadow="2"
     inkscape:pageopacity="0.0"
     inkscape:pagecheckerboard="0"
     showgrid="false"
     inkscape:zoom="0.7"
     inkscape:cx="401.42857"
     inkscape:cy="400"
     inkscape:window-width="1920"
     inkscape:window-height="1012"
     inkscape:window-x="0"
     inkscape:window-y="0"
     inkscape:window-maximized="1"
     inkscape:current-layer="svg6" />
  <title
     id="title2">square1</title>
  <path
     d="M28 24v4h-4v-1h-6v1h-4v-1h-6v1h-4v-4h1v-6h-1v-4h1v-6h-1v-4h4v1h6v-1h4v1h6v-1h4v4h-1v6h1v4h-1v6h1zM15 27h2v-2h-2v2zM5 27h2v-2h-2v2zM5 17h2v-2h-2v2zM7 5h-2v2h2v-2zM17 5h-2v2h2v-2zM24 7h-6v1h-4v-1h-6v1h-1v6h1v4h-1v6h1v1h6v-1h4v1h6v-1h1v-6h-1v-4h1v-6h-1v-1zM27 5h-2v2h2v-2zM27 15h-2v2h2v-2zM25 25v2h2v-2h-2z"
     id="path4"
     style="filter:url(#filter903)" />
  <metadata
     id="metadata939">
    <rdf:RDF>
      <cc:Work
         rdf:about="">
        <dc:title>square1</dc:title>
      </cc:Work>
    </rdf:RDF>
  </metadata>
</svg>
