<?xml version="1.0" encoding="UTF-8" standalone="no"?>
<!-- Uploaded to: SVG Repo, www.svgrepo.com, Transformed by: SVG Repo Mixer Tools -->

<svg
   fill="#000000"
   width="241px"
   height="241px"
   viewBox="0 0 32 32"
   version="1.1"
   stroke="#000000"
   stroke-width="0.41600000000000004"
   id="svg9"
   sodipodi:docname="rectangle-bw.svg"
   inkscape:version="1.1.2 (0a00cf5339, 2022-02-04)"
   xmlns:inkscape="http://www.inkscape.org/namespaces/inkscape"
   xmlns:sodipodi="http://sodipodi.sourceforge.net/DTD/sodipodi-0.dtd"
   xmlns="http://www.w3.org/2000/svg"
   xmlns:svg="http://www.w3.org/2000/svg">
  <defs
     id="defs13">
    <filter
       style="color-interpolation-filters:sRGB;"
       inkscape:label="Greyscale"
       id="filter920"
       x="-0.0086666668"
       y="-0.0086666668"
       width="1.0173333"
       height="1.0173333">
      <feColorMatrix
         values="0.21 0.72 0.072 0.56 0 0.21 0.72 0.072 0.56 0 0.21 0.72 0.072 0.56 0 0 0 0 1 0 "
         id="feColorMatrix918" />
    </filter>
  </defs>
  <sodipodi:namedview
     id="namedview11"
     pagecolor="#ffffff"
     bordercolor="#666666"
     borderopacity="1.0"
     inkscape:pageshadow="2"
     inkscape:pageopacity="0.0"
     inkscape:pagecheckerboard="0"
     showgrid="false"
     inkscape:zoom="2.3236515"
     inkscape:cx="120.93036"
     inkscape:cy="120.5"
     inkscape:window-width="1920"
     inkscape:window-height="1012"
     inkscape:window-x="0"
     inkscape:window-y="0"
     inkscape:window-maximized="1"
     inkscape:current-layer="svg9" />
  <g
     id="SVGRepo_bgCarrier"
     stroke-width="0" />
  <g
     id="SVGRepo_tracerCarrier"
     stroke-linecap="round"
     stroke-linejoin="round" />
  <g
     id="SVGRepo_iconCarrier"
     style="filter:url(#filter920)">
    <title
       id="title4">square1</title>
    <path
       d="M28 24v4h-4v-1h-6v1h-4v-1h-6v1h-4v-4h1v-6h-1v-4h1v-6h-1v-4h4v1h6v-1h4v1h6v-1h4v4h-1v6h1v4h-1v6h1zM15 27h2v-2h-2v2zM5 27h2v-2h-2v2zM5 17h2v-2h-2v2zM7 5h-2v2h2v-2zM17 5h-2v2h2v-2zM24 7h-6v1h-4v-1h-6v1h-1v6h1v4h-1v6h1v1h6v-1h4v1h6v-1h1v-6h-1v-4h1v-6h-1v-1zM27 5h-2v2h2v-2zM27 15h-2v2h2v-2zM25 25v2h2v-2h-2z"
       id="path6" />
  </g>
</svg>
