<?xml version="1.0" encoding="UTF-8" standalone="no"?>
<svg
   height="24"
   version="1.1"
   width="24"
   id="svg3063"
   sodipodi:docname="icon.svg"
   inkscape:version="1.1.2 (0a00cf5339, 2022-02-04)"
   xmlns:inkscape="http://www.inkscape.org/namespaces/inkscape"
   xmlns:sodipodi="http://sodipodi.sourceforge.net/DTD/sodipodi-0.dtd"
   xmlns="http://www.w3.org/2000/svg"
   xmlns:svg="http://www.w3.org/2000/svg">
  <defs
     id="defs3067" />
  <sodipodi:namedview
     id="namedview3065"
     pagecolor="#ffffff"
     bordercolor="#666666"
     borderopacity="1.0"
     inkscape:pageshadow="2"
     inkscape:pageopacity="0.0"
     inkscape:pagecheckerboard="0"
     showgrid="false"
     inkscape:zoom="21.5"
     inkscape:cx="12.046512"
     inkscape:cy="12"
     inkscape:window-width="1920"
     inkscape:window-height="1012"
     inkscape:window-x="0"
     inkscape:window-y="0"
     inkscape:window-maximized="1"
     inkscape:current-layer="svg3063" />
  <path
     d="m 12.031,1.0312 c -3.8657,0 -6.9998,3.134 -6.9998,7 0,1.383 0.4017,2.6648 1.0938,3.7498 0.0334,0.053 0.059,0.105 0.0938,0.157 L 10.562,20 c 0.204,0.586 0.782,1.031 1.438,1.031 0.656,0 1.202,-0.445 1.406,-1.031 l 4.844,-8.75 c 0.499,-0.963 0.781,-2.06 0.781,-3.2188 0,-3.866 -3.134,-7 -7,-7 z M 12,5 c 1.933,0 3.5,1.567 3.5,3.5 C 15.5,10.433 13.933,12 12,12 10.067,12 8.5,10.433 8.5,8.5 8.5,6.567 10.067,5 12,5 Z"
     fill="#e74c3c"
     id="path3059"
     style="fill:#c44d58;fill-opacity:1" />
</svg>
