<?xml version="1.0" encoding="UTF-8" standalone="no"?>
<svg
   clip-rule="evenodd"
   fill-rule="evenodd"
   stroke-linejoin="round"
   stroke-miterlimit="2"
   viewBox="0 0 64 64"
   version="1.1"
   id="svg10"
   sodipodi:docname="icon.svg"
   inkscape:version="1.1.2 (0a00cf5339, 2022-02-04)"
   xmlns:inkscape="http://www.inkscape.org/namespaces/inkscape"
   xmlns:sodipodi="http://sodipodi.sourceforge.net/DTD/sodipodi-0.dtd"
   xmlns="http://www.w3.org/2000/svg"
   xmlns:svg="http://www.w3.org/2000/svg">
  <defs
     id="defs14" />
  <sodipodi:namedview
     id="namedview12"
     pagecolor="#ffffff"
     bordercolor="#666666"
     borderopacity="1.0"
     inkscape:pageshadow="2"
     inkscape:pageopacity="0.0"
     inkscape:pagecheckerboard="0"
     showgrid="false"
     inkscape:zoom="8.4458627"
     inkscape:cx="9.7088957"
     inkscape:cy="24.035437"
     inkscape:window-width="1920"
     inkscape:window-height="1012"
     inkscape:window-x="0"
     inkscape:window-y="0"
     inkscape:window-maximized="1"
     inkscape:current-layer="svg10" />
  <path
     d="m0 0h64v64h-64z"
     fill="none"
     id="path2" />
  <path
     d="m 9.803,56 h 4 v 4 c 0,2.208 1.792,4 4,4 h 40 c 2.208,0 4,-1.792 4,-4 V 12 c 0,-2.208 -1.792,-4 -4,-4 h -4 V 4 c 0,-2.208 -1.792,-4 -4,-4 h -40 c -2.208,0 -4,1.792 -4,4 v 48 c 0,2.208 1.792,4 4,4 z m 41,-3 h -42 V 3 h 42 z m 8,-42 v 50 h -42 v -5 h 33 c 2.208,0 4,-1.792 4,-4 V 11 Z"
     fill="#676e78"
     id="path4"
     style="fill-rule:nonzero;stroke-width:2" />
  <g
     id="g834"
     transform="matrix(0.02923419,0,0,0.02929274,-0.30595558,9.5903934)">
    <path
       id="path6"
       d="m 831,909.9 c 37.9,47.4 76.5,107 96.7,143 24.6,46.8 34.8,78.4 53.1,135 10.7,31 20.9,40.4 42.3,40.4 23.4,0 34.1,-15.8 42.3,-40.4 17.1,-53.1 30.3,-93.5 51.2,-132 80.6,-152 212,-260 286,-408 0,0 48.7,-90.4 48.7,-217 0,-118 -48,-200 -48,-200 l -572,680 z"
       inkscape:connector-curvature="0"
       style="fill:#34a853" />
    <path
       id="path8"
       d="m 637,631.9 c 46.1,105 134,197 194,278 l 318,-377 c 0,0 -44.9,58.8 -126,58.8 -90.4,0 -164,-72 -164,-163 0,-62.6 37.3,-106 37.3,-106 -234,34.8 -221,91.5 -260,309 z"
       inkscape:connector-curvature="0"
       style="fill:#fbbc04" />
    <path
       id="path10"
       d="m 1153,19.6 c 106,34.1 196,106 250,211 l -254,303 c 0,0 37.3,-43.6 37.3,-106 0,-92.9 -78.4,-163 -163,-163 -80.3,0 -126,58.1 -126,58.1 19.5,-44.4 221,-288 256,-303 z"
       inkscape:connector-curvature="0"
       style="fill:#4285f4" />
    <path
       id="path12"
       d="m 695,152.9 c 63.2,-75.2 174,-153 327,-153 73.9,0 130,19.6 130,19.6 l -255,303 c -17.2,-9.33 -185,-140 -202,-170 z"
       inkscape:connector-curvature="0"
       style="fill:#1a73e8" />
    <path
       id="path14"
       d="m 637,631.9 c 0,0 -41.7,-82.8 -41.7,-202 0,-113 44.2,-212 100,-276 l 202,170 -260,308 z"
       inkscape:connector-curvature="0"
       style="fill:#ea4335" />
  </g>
</svg>
