<?xml version="1.0" encoding="UTF-8" standalone="no"?>
<svg
   clip-rule="evenodd"
   fill-rule="evenodd"
   stroke-linejoin="round"
   stroke-miterlimit="2"
   viewBox="0 0 64 64"
   version="1.1"
   id="svg10"
   sodipodi:docname="icon-dark.svg"
   inkscape:version="1.1.2 (0a00cf5339, 2022-02-04)"
   xmlns:inkscape="http://www.inkscape.org/namespaces/inkscape"
   xmlns:sodipodi="http://sodipodi.sourceforge.net/DTD/sodipodi-0.dtd"
   xmlns="http://www.w3.org/2000/svg"
   xmlns:svg="http://www.w3.org/2000/svg">
  <defs
     id="defs14" />
  <sodipodi:namedview
     id="namedview12"
     pagecolor="#ffffff"
     bordercolor="#666666"
     borderopacity="1.0"
     inkscape:pageshadow="2"
     inkscape:pageopacity="0.0"
     inkscape:pagecheckerboard="0"
     showgrid="false"
     inkscape:zoom="8.4458627"
     inkscape:cx="9.7088957"
     inkscape:cy="24.035437"
     inkscape:window-width="1920"
     inkscape:window-height="1012"
     inkscape:window-x="0"
     inkscape:window-y="0"
     inkscape:window-maximized="1"
     inkscape:current-layer="svg10" />
  <path
     d="m0 0h64v64h-64z"
     fill="none"
     id="path2" />
  <path
     d="m 9.803,56 h 4 v 4 c 0,2.208 1.792,4 4,4 h 40 c 2.208,0 4,-1.792 4,-4 V 12 c 0,-2.208 -1.792,-4 -4,-4 h -4 V 4 c 0,-2.208 -1.792,-4 -4,-4 h -40 c -2.208,0 -4,1.792 -4,4 v 48 c 0,2.208 1.792,4 4,4 z m 41,-3 h -42 V 3 h 42 z m 8,-42 v 50 h -42 v -5 h 33 c 2.208,0 4,-1.792 4,-4 V 11 Z"
     fill="#676e78"
     id="path4"
     style="fill-rule:nonzero;stroke-width:2" />
  <g
     id="g834"
     transform="matrix(0.03511001,0,0,0.03596995,-5.9139486,6.8491157)">
    <path
       id="path6"
       d="m 831,909.9 c 37.9,47.4 76.5,107 96.7,143 24.6,46.8 34.8,78.4 53.1,135 10.7,31 20.9,40.4 42.3,40.4 23.4,0 34.1,-15.8 42.3,-40.4 17.1,-53.1 30.3,-93.5 51.2,-132 80.6,-152 212,-260 286,-408 0,0 48.7,-90.4 48.7,-217 0,-118 -48,-200 -48,-200 l -572,680 z"
       inkscape:connector-curvature="0"
       style="fill:#34a853" />
    <path
       id="path8"
       d="m 637,631.9 c 46.1,105 134,197 194,278 l 318,-377 c 0,0 -44.9,58.8 -126,58.8 -90.4,0 -164,-72 -164,-163 0,-62.6 37.3,-106 37.3,-106 -234,34.8 -221,91.5 -260,309 z"
       inkscape:connector-curvature="0"
       style="fill:#fbbc04" />
    <path
       id="path10"
       d="m 1153,19.6 c 106,34.1 196,106 250,211 l -254,303 c 0,0 37.3,-43.6 37.3,-106 0,-92.9 -78.4,-163 -163,-163 -80.3,0 -126,58.1 -126,58.1 19.5,-44.4 221,-288 256,-303 z"
       inkscape:connector-curvature="0"
       style="fill:#4285f4" />
    <path
       id="path12"
       d="m 695,152.9 c 63.2,-75.2 174,-153 327,-153 73.9,0 130,19.6 130,19.6 l -255,303 c -17.2,-9.33 -185,-140 -202,-170 z"
       inkscape:connector-curvature="0"
       style="fill:#1a73e8" />
    <path
       id="path14"
       d="m 637,631.9 c 0,0 -41.7,-82.8 -41.7,-202 0,-113 44.2,-212 100,-276 l 202,170 -260,308 z"
       inkscape:connector-curvature="0"
       style="fill:#ea4335" />
  </g>
  <path
     style="fill:#ececec;stroke-width:0.0518597;stroke-linejoin:round;paint-order:stroke fill markers"
     d="m 16.375118,63.68768 c -0.832184,-0.319934 -1.72398,-1.14699 -2.131414,-1.976683 -0.326669,-0.665222 -0.332127,-0.712185 -0.369465,-3.179387 l -0.0379,-2.504193 -2.448526,-0.04439 C 9.0022691,55.939783 8.9206573,55.930108 8.2149773,55.606868 7.3148011,55.194539 6.6240654,54.501128 6.1924698,53.576528 L 5.8608578,52.866121 V 28.001876 3.1376309 L 6.2048345,2.3927119 C 6.6144255,1.5056982 7.4977166,0.64497952 8.3565299,0.29600292 8.9302985,0.0628535 9.2543523,0.05865846 29.363489,0.02405712 c 20.968435,-0.03607991 21.3189,-0.02950316 22.198707,0.41657542 0.704897,0.35739613 1.326661,0.97343936 1.726143,1.71026336 l 0.40659,0.7499327 0.0378,2.5670297 0.0378,2.5670296 2.56703,0.037796 2.56703,0.037796 0.757783,0.4107741 c 0.887296,0.4809801 1.546565,1.2447052 1.866322,2.162027 0.208406,0.597875 0.217523,1.65875 0.217523,25.310674 0,19.274729 -0.03211,24.792005 -0.146481,25.167254 -0.346797,1.137855 -1.318033,2.136262 -2.493536,2.563295 -0.517249,0.187905 -2.033359,0.202189 -21.33622,0.201033 -20.488016,-0.0012 -20.788035,-0.0046 -21.394854,-0.237857 z M 58.84538,35.993955 V 11.011309 H 56.299755 53.75413 v 20.757915 c 0,22.829534 0.04822,21.335242 -0.726281,22.504533 -0.206968,0.312463 -0.647708,0.74746 -0.979423,0.966658 -1.215475,0.803194 -0.24298,0.763337 -18.624972,0.763337 H 16.812966 v 2.486425 2.486424 H 37.829173 58.84538 Z M 50.794101,28.001876 V 2.9600292 H 29.777894 8.7616864 V 28.001876 53.043723 H 29.777894 50.794101 Z"
     id="path1036" />
</svg>
