<?xml version="1.0" encoding="UTF-8" standalone="no"?>
<svg
   xmlns:dc="http://purl.org/dc/elements/1.1/"
   xmlns:cc="http://creativecommons.org/ns#"
   xmlns:rdf="http://www.w3.org/1999/02/22-rdf-syntax-ns#"
   xmlns:svg="http://www.w3.org/2000/svg"
   xmlns="http://www.w3.org/2000/svg"
   xmlns:sodipodi="http://sodipodi.sourceforge.net/DTD/sodipodi-0.dtd"
   xmlns:inkscape="http://www.inkscape.org/namespaces/inkscape"
   viewBox="0 0 2017 1816"
   version="1.1"
   id="svg16"
   sodipodi:docname="icon-dark.svg"
   inkscape:version="0.92.5 (2060ec1f9f, 2020-04-08)">
  <metadata
     id="metadata22">
    <rdf:RDF>
      <cc:Work
         rdf:about="">
        <dc:format>image/svg+xml</dc:format>
        <dc:type
           rdf:resource="http://purl.org/dc/dcmitype/StillImage" />
        <dc:title></dc:title>
      </cc:Work>
    </rdf:RDF>
  </metadata>
  <defs
     id="defs20" />
  <sodipodi:namedview
     pagecolor="#ffffff"
     bordercolor="#666666"
     borderopacity="1"
     objecttolerance="10"
     gridtolerance="10"
     guidetolerance="10"
     inkscape:pageopacity="0"
     inkscape:pageshadow="2"
     inkscape:window-width="1920"
     inkscape:window-height="1025"
     id="namedview18"
     showgrid="false"
     inkscape:zoom="0.36757093"
     inkscape:cx="903.61108"
     inkscape:cy="970.14839"
     inkscape:window-x="0"
     inkscape:window-y="0"
     inkscape:window-maximized="1"
     inkscape:current-layer="svg16" />
  <g
     id="g834"
     transform="matrix(1.3775542,0,0,1.3883791,-382.38011,47.701557)"
     style="stroke:#ffffff;stroke-opacity:1;stroke-width:14.46177547;stroke-miterlimit:4;stroke-dasharray:none">
    <path
       id="path6"
       d="m 831,909.9 c 37.9,47.4 76.5,107 96.7,143 24.6,46.8 34.8,78.4 53.1,135 10.7,31 20.9,40.4 42.3,40.4 23.4,0 34.1,-15.8 42.3,-40.4 17.1,-53.1 30.3,-93.5 51.2,-132 80.6,-152 212,-260 286,-408 0,0 48.7,-90.4 48.7,-217 0,-118 -48,-200 -48,-200 l -572,680 z"
       inkscape:connector-curvature="0"
       style="fill:#34a853;stroke:#ffffff;stroke-opacity:1;stroke-width:14.46177547;stroke-miterlimit:4;stroke-dasharray:none" />
    <path
       id="path8"
       d="m 637,631.9 c 46.1,105 134,197 194,278 l 318,-377 c 0,0 -44.9,58.8 -126,58.8 -90.4,0 -164,-72 -164,-163 0,-62.6 37.3,-106 37.3,-106 -234,34.8 -221,91.5 -260,309 z"
       inkscape:connector-curvature="0"
       style="fill:#fbbc04;stroke:#ffffff;stroke-opacity:1;stroke-width:14.46177547;stroke-miterlimit:4;stroke-dasharray:none" />
    <path
       id="path10"
       d="m 1153,19.6 c 106,34.1 196,106 250,211 l -254,303 c 0,0 37.3,-43.6 37.3,-106 0,-92.9 -78.4,-163 -163,-163 -80.3,0 -126,58.1 -126,58.1 19.5,-44.4 221,-288 256,-303 z"
       inkscape:connector-curvature="0"
       style="fill:#4285f4;stroke:#ffffff;stroke-opacity:1;stroke-width:14.46177547;stroke-miterlimit:4;stroke-dasharray:none" />
    <path
       id="path12"
       d="m 695,152.9 c 63.2,-75.2 174,-153 327,-153 73.9,0 130,19.6 130,19.6 l -255,303 c -17.2,-9.33 -185,-140 -202,-170 z"
       inkscape:connector-curvature="0"
       style="fill:#1a73e8;stroke:#ffffff;stroke-opacity:1;stroke-width:14.46177547;stroke-miterlimit:4;stroke-dasharray:none" />
    <path
       id="path14"
       d="m 637,631.9 c 0,0 -41.7,-82.8 -41.7,-202 0,-113 44.2,-212 100,-276 l 202,170 -260,308 z"
       inkscape:connector-curvature="0"
       style="fill:#ea4335;stroke:#ffffff;stroke-opacity:1;stroke-width:14.46177547;stroke-miterlimit:4;stroke-dasharray:none" />
  </g>
</svg>
